<mxfile host="Electron" agent="Mozilla/5.0 (Windows NT 10.0; Win64; x64) AppleWebKit/537.36 (KHTML, like Gecko) draw.io/24.7.17 Chrome/128.0.6613.36 Electron/32.0.1 Safari/537.36" version="24.7.17">
  <diagram name="Страница — 1" id="6dKcLjjxsjvN5Ayz9n6f">
    <mxGraphModel dx="1057" dy="2285" grid="1" gridSize="10" guides="1" tooltips="1" connect="1" arrows="1" fold="1" page="1" pageScale="1" pageWidth="827" pageHeight="1169" math="0" shadow="0">
      <root>
        <mxCell id="0" />
        <mxCell id="1" parent="0" />
        <mxCell id="-Ef3pym1SZ-9MBznSWtH-1" value="Установка диапазона цен для поиска недвижимости" style="swimlane;html=1;childLayout=stackLayout;resizeParent=1;resizeParentMax=0;horizontal=0;startSize=20;horizontalStack=0;whiteSpace=wrap;" parent="1" vertex="1">
          <mxGeometry x="920" y="-1000" width="1440" height="890" as="geometry" />
        </mxCell>
        <mxCell id="-Ef3pym1SZ-9MBznSWtH-2" value="Пользователь" style="swimlane;html=1;startSize=20;horizontal=0;" parent="-Ef3pym1SZ-9MBznSWtH-1" vertex="1">
          <mxGeometry x="20" width="1420" height="400" as="geometry" />
        </mxCell>
        <mxCell id="-Ef3pym1SZ-9MBznSWtH-5" value="Выбрать&lt;div&gt;фильтр цен&lt;/div&gt;" style="points=[[0.145,0.145,0],[0.5,0,0],[0.855,0.145,0],[1,0.5,0],[0.855,0.855,0],[0.5,1,0],[0.145,0.855,0],[0,0.5,0]];shape=mxgraph.bpmn.event;html=1;verticalLabelPosition=bottom;labelBackgroundColor=#ffffff;verticalAlign=top;align=center;perimeter=ellipsePerimeter;outlineConnect=0;aspect=fixed;outline=standard;symbol=general;" parent="-Ef3pym1SZ-9MBznSWtH-2" vertex="1">
          <mxGeometry x="100" y="110" width="50" height="50" as="geometry" />
        </mxCell>
        <mxCell id="-Ef3pym1SZ-9MBznSWtH-6" value="Установить и сохранить диапазон цен" style="points=[[0.25,0,0],[0.5,0,0],[0.75,0,0],[1,0.25,0],[1,0.5,0],[1,0.75,0],[0.75,1,0],[0.5,1,0],[0.25,1,0],[0,0.75,0],[0,0.5,0],[0,0.25,0]];shape=mxgraph.bpmn.task;whiteSpace=wrap;rectStyle=rounded;size=10;html=1;container=1;expand=0;collapsible=0;taskMarker=abstract;" parent="-Ef3pym1SZ-9MBznSWtH-2" vertex="1">
          <mxGeometry x="280" y="95" width="120" height="80" as="geometry" />
        </mxCell>
        <mxCell id="-Ef3pym1SZ-9MBznSWtH-8" value="Запросить поиск объектов недвижимости" style="points=[[0.25,0,0],[0.5,0,0],[0.75,0,0],[1,0.25,0],[1,0.5,0],[1,0.75,0],[0.75,1,0],[0.5,1,0],[0.25,1,0],[0,0.75,0],[0,0.5,0],[0,0.25,0]];shape=mxgraph.bpmn.task;whiteSpace=wrap;rectStyle=rounded;size=10;html=1;container=1;expand=0;collapsible=0;taskMarker=abstract;" parent="-Ef3pym1SZ-9MBznSWtH-2" vertex="1">
          <mxGeometry x="520" y="95" width="120" height="80" as="geometry" />
        </mxCell>
        <mxCell id="-Ef3pym1SZ-9MBznSWtH-9" style="edgeStyle=orthogonalEdgeStyle;rounded=0;orthogonalLoop=1;jettySize=auto;html=1;exitX=1;exitY=0.5;exitDx=0;exitDy=0;exitPerimeter=0;entryX=0;entryY=0.5;entryDx=0;entryDy=0;entryPerimeter=0;" parent="-Ef3pym1SZ-9MBznSWtH-2" source="-Ef3pym1SZ-9MBznSWtH-6" target="-Ef3pym1SZ-9MBznSWtH-8" edge="1">
          <mxGeometry relative="1" as="geometry" />
        </mxCell>
        <mxCell id="-Ef3pym1SZ-9MBznSWtH-36" value="Объекты недвижимости,&lt;div&gt;согласно заданному&lt;/div&gt;&lt;div&gt;диапазону цен найдены&lt;/div&gt;" style="points=[[0.145,0.145,0],[0.5,0,0],[0.855,0.145,0],[1,0.5,0],[0.855,0.855,0],[0.5,1,0],[0.145,0.855,0],[0,0.5,0]];shape=mxgraph.bpmn.event;html=1;verticalLabelPosition=bottom;labelBackgroundColor=#ffffff;verticalAlign=top;align=center;perimeter=ellipsePerimeter;outlineConnect=0;aspect=fixed;outline=end;symbol=terminate2;" parent="-Ef3pym1SZ-9MBznSWtH-2" vertex="1">
          <mxGeometry x="905" y="110" width="50" height="50" as="geometry" />
        </mxCell>
        <mxCell id="-Ef3pym1SZ-9MBznSWtH-31" value="Объекты недвижимости,&lt;div&gt;согласно заданному&lt;/div&gt;&lt;div&gt;диапазону цен не найдены&lt;/div&gt;" style="points=[[0.145,0.145,0],[0.5,0,0],[0.855,0.145,0],[1,0.5,0],[0.855,0.855,0],[0.5,1,0],[0.145,0.855,0],[0,0.5,0]];shape=mxgraph.bpmn.event;html=1;verticalLabelPosition=bottom;labelBackgroundColor=#ffffff;verticalAlign=top;align=center;perimeter=ellipsePerimeter;outlineConnect=0;aspect=fixed;outline=end;symbol=terminate2;" parent="-Ef3pym1SZ-9MBznSWtH-2" vertex="1">
          <mxGeometry x="1300" y="260" width="50" height="50" as="geometry" />
        </mxCell>
        <mxCell id="-Ef3pym1SZ-9MBznSWtH-47" style="edgeStyle=orthogonalEdgeStyle;rounded=0;orthogonalLoop=1;jettySize=auto;html=1;exitX=1;exitY=0.5;exitDx=0;exitDy=0;exitPerimeter=0;entryX=0;entryY=0.5;entryDx=0;entryDy=0;entryPerimeter=0;" parent="-Ef3pym1SZ-9MBznSWtH-2" source="-Ef3pym1SZ-9MBznSWtH-5" target="-Ef3pym1SZ-9MBznSWtH-6" edge="1">
          <mxGeometry relative="1" as="geometry" />
        </mxCell>
        <mxCell id="-Ef3pym1SZ-9MBznSWtH-28" value="" style="points=[[0.25,0.25,0],[0.5,0,0],[0.75,0.25,0],[1,0.5,0],[0.75,0.75,0],[0.5,1,0],[0.25,0.75,0],[0,0.5,0]];shape=mxgraph.bpmn.gateway2;html=1;verticalLabelPosition=bottom;labelBackgroundColor=#ffffff;verticalAlign=top;align=center;perimeter=rhombusPerimeter;outlineConnect=0;outline=none;symbol=none;gwType=exclusive;" parent="-Ef3pym1SZ-9MBznSWtH-2" vertex="1">
          <mxGeometry x="1110" y="260" width="50" height="50" as="geometry" />
        </mxCell>
        <mxCell id="-Ef3pym1SZ-9MBznSWtH-41" style="edgeStyle=orthogonalEdgeStyle;rounded=0;orthogonalLoop=1;jettySize=auto;html=1;exitX=1;exitY=0.5;exitDx=0;exitDy=0;exitPerimeter=0;" parent="-Ef3pym1SZ-9MBznSWtH-2" source="-Ef3pym1SZ-9MBznSWtH-28" target="-Ef3pym1SZ-9MBznSWtH-31" edge="1">
          <mxGeometry relative="1" as="geometry" />
        </mxCell>
        <mxCell id="-Ef3pym1SZ-9MBznSWtH-33" value="Нет" style="text;html=1;align=center;verticalAlign=middle;resizable=0;points=[];autosize=1;strokeColor=none;fillColor=none;" parent="-Ef3pym1SZ-9MBznSWtH-2" vertex="1">
          <mxGeometry x="1210" y="260" width="40" height="30" as="geometry" />
        </mxCell>
        <mxCell id="-Ef3pym1SZ-9MBznSWtH-30" value="Актуален другой&lt;div&gt;диапазон цен?&lt;/div&gt;" style="text;html=1;align=center;verticalAlign=middle;resizable=0;points=[];autosize=1;strokeColor=none;fillColor=none;" parent="-Ef3pym1SZ-9MBznSWtH-2" vertex="1">
          <mxGeometry x="1020" y="340" width="120" height="40" as="geometry" />
        </mxCell>
        <mxCell id="-Ef3pym1SZ-9MBznSWtH-50" style="edgeStyle=orthogonalEdgeStyle;rounded=0;orthogonalLoop=1;jettySize=auto;html=1;exitX=0.5;exitY=0;exitDx=0;exitDy=0;exitPerimeter=0;entryX=0.5;entryY=0;entryDx=0;entryDy=0;entryPerimeter=0;" parent="-Ef3pym1SZ-9MBznSWtH-2" source="-Ef3pym1SZ-9MBznSWtH-28" target="-Ef3pym1SZ-9MBznSWtH-6" edge="1">
          <mxGeometry relative="1" as="geometry">
            <Array as="points">
              <mxPoint x="1135" y="60" />
              <mxPoint x="340" y="60" />
            </Array>
          </mxGeometry>
        </mxCell>
        <mxCell id="-Ef3pym1SZ-9MBznSWtH-35" value="Да" style="text;html=1;align=center;verticalAlign=middle;resizable=0;points=[];autosize=1;strokeColor=none;fillColor=none;" parent="-Ef3pym1SZ-9MBznSWtH-2" vertex="1">
          <mxGeometry x="1088" y="185" width="40" height="30" as="geometry" />
        </mxCell>
        <mxCell id="-Ef3pym1SZ-9MBznSWtH-3" value="Система" style="swimlane;html=1;startSize=20;horizontal=0;" parent="-Ef3pym1SZ-9MBznSWtH-1" vertex="1">
          <mxGeometry x="20" y="400" width="1420" height="490" as="geometry" />
        </mxCell>
        <mxCell id="-Ef3pym1SZ-9MBznSWtH-10" value="База объектов&lt;div&gt;&lt;span style=&quot;background-color: initial;&quot;&gt;недвижимости&lt;/span&gt;&lt;/div&gt;" style="shape=datastore;html=1;labelPosition=center;verticalLabelPosition=bottom;align=center;verticalAlign=top;" parent="-Ef3pym1SZ-9MBznSWtH-3" vertex="1">
          <mxGeometry x="530" y="320" width="100" height="100" as="geometry" />
        </mxCell>
        <mxCell id="-Ef3pym1SZ-9MBznSWtH-18" value="" style="points=[[0.25,0.25,0],[0.5,0,0],[0.75,0.25,0],[1,0.5,0],[0.75,0.75,0],[0.5,1,0],[0.25,0.75,0],[0,0.5,0]];shape=mxgraph.bpmn.gateway2;html=1;verticalLabelPosition=bottom;labelBackgroundColor=#ffffff;verticalAlign=top;align=center;perimeter=rhombusPerimeter;outlineConnect=0;outline=none;symbol=none;gwType=exclusive;" parent="-Ef3pym1SZ-9MBznSWtH-3" vertex="1">
          <mxGeometry x="740" y="125" width="50" height="50" as="geometry" />
        </mxCell>
        <mxCell id="-Ef3pym1SZ-9MBznSWtH-20" value="Поиск не дал результатов" style="points=[[0.25,0,0],[0.5,0,0],[0.75,0,0],[1,0.25,0],[1,0.5,0],[1,0.75,0],[0.75,1,0],[0.5,1,0],[0.25,1,0],[0,0.75,0],[0,0.5,0],[0,0.25,0]];shape=mxgraph.bpmn.task;whiteSpace=wrap;rectStyle=rounded;size=10;html=1;container=1;expand=0;collapsible=0;taskMarker=receive;" parent="-Ef3pym1SZ-9MBznSWtH-3" vertex="1">
          <mxGeometry x="880" y="280" width="120" height="80" as="geometry" />
        </mxCell>
        <mxCell id="-Ef3pym1SZ-9MBznSWtH-21" value="Отображение результатов поиска" style="points=[[0.25,0,0],[0.5,0,0],[0.75,0,0],[1,0.25,0],[1,0.5,0],[1,0.75,0],[0.75,1,0],[0.5,1,0],[0.25,1,0],[0,0.75,0],[0,0.5,0],[0,0.25,0]];shape=mxgraph.bpmn.task;whiteSpace=wrap;rectStyle=rounded;size=10;html=1;container=1;expand=0;collapsible=0;taskMarker=abstract;" parent="-Ef3pym1SZ-9MBznSWtH-3" vertex="1">
          <mxGeometry x="870" y="110" width="120" height="80" as="geometry" />
        </mxCell>
        <mxCell id="-Ef3pym1SZ-9MBznSWtH-24" style="edgeStyle=orthogonalEdgeStyle;rounded=0;orthogonalLoop=1;jettySize=auto;html=1;exitX=0.5;exitY=1;exitDx=0;exitDy=0;exitPerimeter=0;entryX=0.002;entryY=0.41;entryDx=0;entryDy=0;entryPerimeter=0;" parent="-Ef3pym1SZ-9MBznSWtH-3" source="-Ef3pym1SZ-9MBznSWtH-18" target="-Ef3pym1SZ-9MBznSWtH-20" edge="1">
          <mxGeometry relative="1" as="geometry" />
        </mxCell>
        <mxCell id="-Ef3pym1SZ-9MBznSWtH-27" value="Нет" style="text;html=1;align=center;verticalAlign=middle;resizable=0;points=[];autosize=1;strokeColor=none;fillColor=none;" parent="-Ef3pym1SZ-9MBznSWtH-3" vertex="1">
          <mxGeometry x="810" y="280" width="40" height="30" as="geometry" />
        </mxCell>
        <mxCell id="-Ef3pym1SZ-9MBznSWtH-26" value="Да" style="text;html=1;align=center;verticalAlign=middle;resizable=0;points=[];autosize=1;strokeColor=none;fillColor=none;" parent="-Ef3pym1SZ-9MBznSWtH-3" vertex="1">
          <mxGeometry x="810" y="120" width="40" height="30" as="geometry" />
        </mxCell>
        <mxCell id="-Ef3pym1SZ-9MBznSWtH-42" value="Проверка цены&amp;nbsp;&lt;div&gt;(&quot;За все&quot; или&lt;/div&gt;&lt;div&gt;&quot;За кв.м&quot;)&lt;/div&gt;" style="points=[[0.25,0,0],[0.5,0,0],[0.75,0,0],[1,0.25,0],[1,0.5,0],[1,0.75,0],[0.75,1,0],[0.5,1,0],[0.25,1,0],[0,0.75,0],[0,0.5,0],[0,0.25,0]];shape=mxgraph.bpmn.task;whiteSpace=wrap;rectStyle=rounded;size=10;html=1;container=1;expand=0;collapsible=0;taskMarker=abstract;" parent="-Ef3pym1SZ-9MBznSWtH-3" vertex="1">
          <mxGeometry x="280" y="110" width="120" height="80" as="geometry" />
        </mxCell>
        <mxCell id="-Ef3pym1SZ-9MBznSWtH-54" style="edgeStyle=orthogonalEdgeStyle;rounded=0;orthogonalLoop=1;jettySize=auto;html=1;exitX=0.5;exitY=1;exitDx=0;exitDy=0;exitPerimeter=0;entryX=0.5;entryY=0;entryDx=0;entryDy=0;" parent="-Ef3pym1SZ-9MBznSWtH-3" source="-Ef3pym1SZ-9MBznSWtH-52" target="-Ef3pym1SZ-9MBznSWtH-10" edge="1">
          <mxGeometry relative="1" as="geometry" />
        </mxCell>
        <mxCell id="-Ef3pym1SZ-9MBznSWtH-52" value="Поиск объектов недвижимости" style="points=[[0.25,0,0],[0.5,0,0],[0.75,0,0],[1,0.25,0],[1,0.5,0],[1,0.75,0],[0.75,1,0],[0.5,1,0],[0.25,1,0],[0,0.75,0],[0,0.5,0],[0,0.25,0]];shape=mxgraph.bpmn.task;whiteSpace=wrap;rectStyle=rounded;size=10;html=1;container=1;expand=0;collapsible=0;taskMarker=abstract;" parent="-Ef3pym1SZ-9MBznSWtH-3" vertex="1">
          <mxGeometry x="520" y="110" width="120" height="80" as="geometry" />
        </mxCell>
        <mxCell id="-Ef3pym1SZ-9MBznSWtH-55" style="edgeStyle=orthogonalEdgeStyle;rounded=0;orthogonalLoop=1;jettySize=auto;html=1;exitX=0.5;exitY=0;exitDx=0;exitDy=0;entryX=0.5;entryY=1;entryDx=0;entryDy=0;entryPerimeter=0;" parent="-Ef3pym1SZ-9MBznSWtH-3" source="-Ef3pym1SZ-9MBznSWtH-10" target="-Ef3pym1SZ-9MBznSWtH-52" edge="1">
          <mxGeometry relative="1" as="geometry" />
        </mxCell>
        <mxCell id="-Ef3pym1SZ-9MBznSWtH-56" style="edgeStyle=orthogonalEdgeStyle;rounded=0;orthogonalLoop=1;jettySize=auto;html=1;exitX=1;exitY=0.5;exitDx=0;exitDy=0;exitPerimeter=0;entryX=0;entryY=0.5;entryDx=0;entryDy=0;entryPerimeter=0;" parent="-Ef3pym1SZ-9MBznSWtH-3" source="-Ef3pym1SZ-9MBznSWtH-52" target="-Ef3pym1SZ-9MBznSWtH-18" edge="1">
          <mxGeometry relative="1" as="geometry" />
        </mxCell>
        <mxCell id="-Ef3pym1SZ-9MBznSWtH-25" value="Объекты&lt;div&gt;найдены?&lt;/div&gt;" style="text;html=1;align=center;verticalAlign=middle;resizable=0;points=[];autosize=1;strokeColor=none;fillColor=none;" parent="-Ef3pym1SZ-9MBznSWtH-3" vertex="1">
          <mxGeometry x="650" y="110" width="80" height="40" as="geometry" />
        </mxCell>
        <mxCell id="-Ef3pym1SZ-9MBznSWtH-57" style="edgeStyle=orthogonalEdgeStyle;rounded=0;orthogonalLoop=1;jettySize=auto;html=1;exitX=1;exitY=0.5;exitDx=0;exitDy=0;exitPerimeter=0;entryX=0;entryY=0.5;entryDx=0;entryDy=0;entryPerimeter=0;" parent="-Ef3pym1SZ-9MBznSWtH-3" source="-Ef3pym1SZ-9MBznSWtH-18" target="-Ef3pym1SZ-9MBznSWtH-21" edge="1">
          <mxGeometry relative="1" as="geometry" />
        </mxCell>
        <mxCell id="-Ef3pym1SZ-9MBznSWtH-43" style="edgeStyle=orthogonalEdgeStyle;rounded=0;orthogonalLoop=1;jettySize=auto;html=1;exitX=0.5;exitY=1;exitDx=0;exitDy=0;exitPerimeter=0;entryX=0.5;entryY=0;entryDx=0;entryDy=0;entryPerimeter=0;" parent="-Ef3pym1SZ-9MBznSWtH-1" source="-Ef3pym1SZ-9MBznSWtH-6" target="-Ef3pym1SZ-9MBznSWtH-42" edge="1">
          <mxGeometry relative="1" as="geometry" />
        </mxCell>
        <mxCell id="-Ef3pym1SZ-9MBznSWtH-45" style="edgeStyle=orthogonalEdgeStyle;rounded=0;orthogonalLoop=1;jettySize=auto;html=1;exitX=0.5;exitY=0;exitDx=0;exitDy=0;exitPerimeter=0;entryX=0.5;entryY=1;entryDx=0;entryDy=0;entryPerimeter=0;" parent="-Ef3pym1SZ-9MBznSWtH-1" source="-Ef3pym1SZ-9MBznSWtH-42" target="-Ef3pym1SZ-9MBznSWtH-6" edge="1">
          <mxGeometry relative="1" as="geometry" />
        </mxCell>
        <mxCell id="-Ef3pym1SZ-9MBznSWtH-53" style="edgeStyle=orthogonalEdgeStyle;rounded=0;orthogonalLoop=1;jettySize=auto;html=1;exitX=0.5;exitY=1;exitDx=0;exitDy=0;exitPerimeter=0;entryX=0.5;entryY=0;entryDx=0;entryDy=0;entryPerimeter=0;" parent="-Ef3pym1SZ-9MBznSWtH-1" source="-Ef3pym1SZ-9MBznSWtH-8" target="-Ef3pym1SZ-9MBznSWtH-52" edge="1">
          <mxGeometry relative="1" as="geometry" />
        </mxCell>
        <mxCell id="-Ef3pym1SZ-9MBznSWtH-58" style="edgeStyle=orthogonalEdgeStyle;rounded=0;orthogonalLoop=1;jettySize=auto;html=1;exitX=0.5;exitY=0;exitDx=0;exitDy=0;exitPerimeter=0;entryX=0.5;entryY=1;entryDx=0;entryDy=0;entryPerimeter=0;" parent="-Ef3pym1SZ-9MBznSWtH-1" source="-Ef3pym1SZ-9MBznSWtH-21" target="-Ef3pym1SZ-9MBznSWtH-36" edge="1">
          <mxGeometry relative="1" as="geometry" />
        </mxCell>
        <mxCell id="-Ef3pym1SZ-9MBznSWtH-59" style="edgeStyle=orthogonalEdgeStyle;rounded=0;orthogonalLoop=1;jettySize=auto;html=1;exitX=1;exitY=0.5;exitDx=0;exitDy=0;exitPerimeter=0;entryX=0.5;entryY=1;entryDx=0;entryDy=0;entryPerimeter=0;" parent="-Ef3pym1SZ-9MBznSWtH-1" source="-Ef3pym1SZ-9MBznSWtH-20" target="-Ef3pym1SZ-9MBznSWtH-28" edge="1">
          <mxGeometry relative="1" as="geometry" />
        </mxCell>
      </root>
    </mxGraphModel>
  </diagram>
</mxfile>
